HIERARCHY
ROOT Hips
{
	OFFSET -0.001795 -0.223333 0.028219
	CHANNELS 6 Xposition Yposition Zposition Zrotation Yrotation Xrotation 
	JOINT LeftUpLeg
	{
		OFFSET 0.069520 -0.091406 -0.006815
		CHANNELS 3 Zrotation Yrotation Xrotation
		JOINT LeftLeg
		{
			OFFSET 0.034277 -0.375199 -0.004496
			CHANNELS 3 Zrotation Yrotation Xrotation
			JOINT LeftFoot
			{
				OFFSET -0.013596 -0.397961 -0.043693
				CHANNELS 3 Zrotation Yrotation Xrotation
				JOINT LeftToe
				{
					OFFSET 0.026358 -0.055791 0.119288
					CHANNELS 3 Zrotation Yrotation Xrotation
					End Site
					{
						OFFSET 0.000000 0.000000 0.000000
					}
				}
			}
		}
	}
	JOINT RightUpLeg
	{
		OFFSET -0.067670 -0.090522 -0.004320
		CHANNELS 3 Zrotation Yrotation Xrotation
		JOINT RightLeg
		{
			OFFSET -0.038290 -0.382569 -0.008850
			CHANNELS 3 Zrotation Yrotation Xrotation
			JOINT RightFoot
			{
				OFFSET 0.015774 -0.398415 -0.042312
				CHANNELS 3 Zrotation Yrotation Xrotation
				JOINT RightToe
				{
					OFFSET -0.025372 -0.048144 0.123348
					CHANNELS 3 Zrotation Yrotation Xrotation
					End Site
					{
						OFFSET 0.000000 0.000000 0.000000
					}
				}
			}
		}
	}
	JOINT Spine
	{
		OFFSET -0.002533 0.108963 -0.026696
		CHANNELS 3 Zrotation Yrotation Xrotation
		JOINT Spine1
		{
			OFFSET 0.005487 0.135180 0.001092
			CHANNELS 3 Zrotation Yrotation Xrotation
			JOINT Spine2
			{
				OFFSET 0.001457 0.052922 0.025425
				CHANNELS 3 Zrotation Yrotation Xrotation
				JOINT Neck
				{
					OFFSET -0.002778 0.213870 -0.042857
					CHANNELS 3 Zrotation Yrotation Xrotation
					JOINT Head
					{
						OFFSET 0.005152 0.064970 0.051349
						CHANNELS 3 Zrotation Yrotation Xrotation
						End Site
						{
							OFFSET 0.000000 0.000000 0.000000
						}
					}
				}
				JOINT LeftShoulder
				{
					OFFSET 0.078845 0.121749 -0.034090
					CHANNELS 3 Zrotation Yrotation Xrotation
					JOINT LeftArm
					{
						OFFSET 0.090977 0.030469 -0.008868
						CHANNELS 3 Zrotation Yrotation Xrotation
						JOINT LeftForeArm
						{
							OFFSET 0.259612 -0.012772 -0.027456
							CHANNELS 3 Zrotation Yrotation Xrotation
							JOINT LeftHand
							{
								OFFSET 0.249234 0.008986 -0.001171
								CHANNELS 3 Zrotation Yrotation Xrotation
								End Site
								{
									OFFSET 0.000000 0.000000 0.000000
								}
							}
						}
					}
				}
				JOINT RightShoulder
				{
					OFFSET -0.081759 0.118833 -0.038615
					CHANNELS 3 Zrotation Yrotation Xrotation
					JOINT RightArm
					{
						OFFSET -0.096012 0.032551 -0.009143
						CHANNELS 3 Zrotation Yrotation Xrotation
						JOINT RightForeArm
						{
							OFFSET -0.253742 -0.013329 -0.021401
							CHANNELS 3 Zrotation Yrotation Xrotation
							JOINT RightHand
							{
								OFFSET -0.255298 0.007772 -0.005559
								CHANNELS 3 Zrotation Yrotation Xrotation
								End Site
								{
									OFFSET 0.000000 0.000000 0.000000
								}
							}
						}
					}
				}
			}
		}
	}
}
MOTION
Frames: 6
Frame Time: 0.050000
0.007985 0.942461 -0.042746 -2.946828 -2.402855 8.804424 7.519721 -0.380788 -6.854499 4.158172 -0.142891 -4.418390 -0.328227 3.428800 11.088953 0.000000 0.000000 0.000000 -3.716399 0.900732 -10.390273 0.674209 0.056772 3.469450 0.543702 -2.845423 8.438365 0.000000 0.000000 0.000000 -3.096610 0.259812 -7.806854 4.040458 -1.614123 -4.282094 0.659271 -4.347399 -0.270897 0.460176 -0.751821 11.502757 0.000000 0.000000 0.000000 25.690258 5.305281 0.589437 -18.810588 -44.278962 4.707077 108.590478 -3.151951 0.812533 0.000000 0.000000 0.000000 -18.547966 -1.829575 2.451017 40.749618 43.923190 9.903357 -134.409648 33.569010 -67.433618 0.000000 0.000000 0.000000 
0.007283 0.941913 -0.043500 -2.868712 -2.050158 9.530921 7.828890 -0.406944 -7.787213 3.636961 -0.103964 -4.423169 -0.451300 3.258875 11.106188 0.000000 0.000000 0.000000 -3.891382 0.993459 -11.784788 0.932503 0.058507 4.540500 0.264843 -3.297366 8.212251 0.000000 0.000000 0.000000 -3.103172 0.267943 -8.061695 3.452823 -1.334057 -4.736806 1.095971 -5.310247 -0.990154 1.979841 -2.034061 10.728418 0.000000 0.000000 0.000000 21.414561 8.343863 -0.459768 -31.361310 -48.857260 10.783027 118.123988 1.978379 8.530100 0.000000 0.000000 0.000000 -15.769071 -4.575704 1.685883 54.361062 42.342378 13.544002 -141.057848 28.346830 -66.094182 0.000000 0.000000 0.000000 
0.006801 0.941388 -0.044112 -2.536359 -2.409568 10.018001 7.853517 -0.418954 -8.603880 2.973348 -0.094115 -3.855365 -0.232636 3.550056 11.012979 0.000000 0.000000 0.000000 -4.467354 1.019215 -12.493711 1.262148 0.019272 4.666972 0.329959 -3.122630 8.028170 0.000000 0.000000 0.000000 -3.224846 0.279532 -8.470996 2.496054 -0.917110 -5.187961 1.306143 -5.671378 -1.046336 1.693325 -1.675299 10.444216 0.000000 0.000000 0.000000 17.249485 10.340053 -1.464394 -51.672863 -53.210271 22.433245 127.791872 3.408110 11.728839 0.000000 0.000000 0.000000 -12.443361 -6.675311 0.702524 71.479847 38.281471 16.328769 -147.726741 26.969011 -72.278789 0.000000 0.000000 0.000000 
0.006570 0.940328 -0.045408 -2.731609 -2.904182 9.482319 8.261740 -0.365800 -7.836595 2.584633 -0.055534 -4.066070 0.036283 3.851247 10.688703 0.000000 0.000000 0.000000 -4.244149 1.037698 -12.553755 1.216915 0.058016 5.557722 0.457887 -2.707206 7.559378 0.000000 0.000000 0.000000 -3.129018 0.270656 -7.876376 1.870922 -0.668442 -5.147489 1.966640 -6.334513 -0.984753 2.478616 -2.248041 9.685636 0.000000 0.000000 0.000000 11.339255 10.728052 -2.492968 -63.600916 -53.953427 29.667707 134.866862 3.397510 13.033666 0.000000 0.000000 0.000000 -8.306995 -6.443648 -0.049090 79.822411 35.500017 16.394961 -150.307814 24.616366 -70.849105 0.000000 0.000000 0.000000 
0.006578 0.939475 -0.047636 -2.842192 -3.347364 9.025951 8.501665 -0.330138 -7.507815 2.319961 -0.053038 -3.796380 0.286380 4.129029 10.344474 0.000000 0.000000 0.000000 -3.537685 1.068634 -12.412052 0.139825 0.230742 5.861004 0.578998 -2.333995 7.183208 0.000000 0.000000 0.000000 -3.037017 0.267003 -7.606512 1.970195 -0.735804 -4.646145 1.596299 -6.632900 -1.387903 1.607906 -1.377265 8.908714 0.000000 0.000000 0.000000 10.318322 9.474647 -2.338519 -66.267285 -55.975231 33.023167 134.450636 2.357552 10.617698 0.000000 0.000000 0.000000 -6.832251 -4.758940 0.086013 81.935845 36.184768 17.535397 -150.322923 26.703023 -76.465089 0.000000 0.000000 0.000000 
0.006771 0.939408 -0.050738 -2.964691 -3.149231 8.710770 9.092945 -0.301636 -7.289485 1.538756 0.018904 -4.019718 0.150496 3.935603 10.391703 0.000000 0.000000 0.000000 -3.169718 1.055488 -12.039173 -0.235655 0.269645 5.524174 0.540840 -2.437537 7.272232 0.000000 0.000000 0.000000 -3.514982 0.247137 -7.463265 2.798378 -1.061790 -5.046635 0.974799 -5.836949 -0.288496 1.257412 -1.186912 8.550292 0.000000 0.000000 0.000000 11.306555 6.184413 -1.307874 -54.630690 -59.459057 27.954331 130.343833 1.727821 8.754770 0.000000 0.000000 0.000000 -6.467942 -2.615620 0.458277 74.340798 39.198931 18.097492 -148.948359 28.639304 -78.429139 0.000000 0.000000 0.000000 
